<svg width="779" height="332" viewBox="0 0 779 332" fill="none" xmlns="http://www.w3.org/2000/svg">
<g filter="url(#filter0_d_109_231)">
<path d="M49.4626 119.671C49.64 115.417 49.769 110.896 49.4626 106.542C47.3178 74.8453 37.8356 43.7991 20 16.4732C28.2244 16.2897 32.3204 16.2063 40.5448 16.0061C54.1714 16.1396 69.3462 15.2888 81.5538 18.6253C85.2306 19.6262 88.359 22.1619 90.3103 25.0146C92.2455 27.8673 93.7291 30.8702 94.745 33.9898C96.019 37.8769 97.164 40.9631 96.9704 45.1004C96.7285 49.955 94.8418 53.792 93.2291 56.2443C95.2933 57.2452 98.2766 58.9802 101.179 61.8496C103.115 63.7681 106.049 67.2547 110.371 80.2838C116.322 98.2842 115.096 104.857 114.58 107.043C113.516 111.563 111.565 113.849 110.678 114.933C108.565 117.519 106.211 118.954 103.566 119.237C100.921 119.521 93.5194 119.671 81.328 119.671C76.3772 119.671 71.4426 119.671 66.4919 119.671C60.8155 119.671 55.1229 119.671 49.4626 119.671ZM55.6712 50.5889C58.2675 52.6576 68.3464 50.5723 69.9107 49.7715C71.4749 48.9541 72.7811 47.803 73.8777 46.3015C74.9581 44.8001 75.3129 43.1318 74.9582 41.2634C74.5873 39.395 73.7971 37.9102 72.5715 36.7591C71.362 35.6247 69.6042 34.8573 67.3143 34.507C65.0244 34.1567 61.5089 33.9064 56.7677 33.7897C52.0266 33.6729 49.7045 33.8564 49.7851 34.3235C49.8658 34.8073 50.5914 36.5923 51.9138 39.6786C53.22 42.7815 54.3972 49.5713 55.6712 50.5889ZM66.7983 100.853C73.668 100.853 79.0381 100.72 82.9245 100.453C86.8109 100.186 88.8589 98.5845 89.1008 95.6317C89.3427 92.6956 88.9879 89.5259 88.0204 86.1393C87.0528 82.7528 85.8917 80.167 84.5049 78.382C83.118 76.597 80.7636 75.4959 77.4416 75.0955C74.1034 74.6951 70.6686 74.5617 67.0886 74.6951C63.5085 74.8286 61.8153 75.0955 62.0249 75.4792C62.2346 75.8796 62.7667 78.3486 63.6537 82.8696C64.5245 87.4239 65.5888 93.4129 66.7983 100.853Z" fill="#51B795"/>
<path d="M176.344 18.4084C178.73 19.793 181.714 27.0166 184.181 31.5709C186.632 36.1252 189.18 41.7806 191.809 48.6037C194.453 55.4102 196.776 62.6504 198.84 70.3243C200.888 77.9983 202.581 85.3052 203.887 92.2618C205.193 99.2185 206.403 108.377 207.499 119.688C197.63 119.688 192.68 119.688 182.794 119.688C181.778 112.181 181.294 108.444 180.278 100.953C179.472 97.3667 179.069 95.565 178.263 91.9782C168.361 91.8114 163.41 91.7447 153.509 91.5945C154.364 97.0497 154.783 99.769 155.621 105.224C155.863 111.013 155.976 113.899 156.234 119.688C146.075 119.688 140.995 119.688 130.835 119.688C130.19 110.329 129.32 102.455 128.271 96.0655C127.223 89.6594 126.03 83.3534 124.691 77.1141C123.369 70.8749 121.644 64.5022 119.547 57.9793C117.435 51.4398 115.387 44.9169 113.419 38.3607C111.436 31.8044 111.742 26.6996 114.338 23.0128C116.935 19.3259 119.66 17.4241 122.514 17.2573C125.369 17.1072 131.029 17.0404 139.495 17.0571C147.962 17.1072 168.732 13.9542 176.344 18.4084ZM173.215 70.1408C171.151 61.4826 169.442 55.5103 168.103 52.2238C166.765 48.9374 164.12 37.4932 160.879 35.1576C155.847 31.5208 141.414 34.7072 140.592 36.4422C139.753 38.1772 139.673 40.7463 140.318 44.1995C140.963 47.6361 143.591 56.261 148.203 70.0908C158.218 70.1075 163.217 70.1075 173.215 70.1408Z" fill="#51B795"/>
<path d="M266.57 19.3259C268.795 25.0647 269.908 27.9508 272.101 33.6895C272.117 33.7062 272.117 33.7396 272.133 33.7563C272.569 35.1576 272.778 35.8583 273.214 37.2596C273.343 37.7934 273.424 38.0603 273.553 38.5942C273.714 39.2281 273.23 39.812 272.617 39.7953C260.91 39.5117 251.943 39.3783 245.719 39.3783C239.252 39.3783 235.656 39.6619 234.882 40.2458C234.124 40.8296 233.656 41.8139 233.495 43.2152C233.334 44.6166 233.688 47.0856 234.527 50.6223C235.382 54.159 236.543 58.7133 238.043 64.2519C239.526 69.8072 240.703 74.4616 241.59 78.2652C242.461 82.0355 243.171 84.8214 243.735 86.6065C244.3 88.3748 244.799 89.6427 245.267 90.4267C245.719 91.1941 246.88 92.3619 248.734 93.9634C251.589 96.4158 255.217 96.299 256.636 96.349C272.73 96.8996 289.211 96.1322 305.402 95.615C305.886 95.5983 306.305 95.9653 306.369 96.4658C307.256 103.723 308.127 110.963 309.014 118.236C309.079 118.82 308.627 119.321 308.063 119.321C285.663 119.221 262.409 117.869 240.703 119.688C240.365 119.721 238.913 119.688 237.027 119.688C234.93 119.688 232.156 118.537 228.673 116.235C225.206 113.932 222.965 111.513 221.932 108.978C220.917 106.442 219.884 102.238 218.852 96.3824C217.82 90.5268 216.321 83.5369 214.353 75.4292C212.386 67.3215 210.58 60.465 208.935 54.893C207.274 49.321 205.887 44.75 204.774 41.1967C203.645 37.6433 202.855 35.1576 202.404 33.7396C201.952 32.3216 201.517 30.6867 201.065 28.8349C200.63 26.9832 201.501 24.6977 203.662 21.9951C205.822 19.2925 209.015 17.8411 213.208 17.691C217.401 17.5409 223.948 17.5409 232.866 17.691C241.639 17.8411 252.588 18.1915 265.731 18.742C266.102 18.742 266.425 18.9756 266.57 19.3259Z" fill="#51B795"/>
<path d="M309.256 119.237C308.772 119.221 308.369 118.837 308.337 118.337C307.208 106.025 306.079 95.9987 304.918 88.2247C303.741 80.2671 301.87 72.2428 299.354 64.1685C296.823 56.0775 294.113 47.7029 291.211 39.028C288.501 30.937 285.728 23.7468 282.873 17.4575C282.583 16.8236 283.035 16.0895 283.728 16.0895C294.613 16.0895 300.048 16.0895 310.917 16.0895C311.272 16.0895 311.626 16.3064 311.772 16.6567C316.464 27.0666 319.883 34.9574 321.963 40.3459C323.802 45.1171 325.576 50.0051 327.285 55.0098C327.559 55.8273 328.656 55.894 329.01 55.1099C334.961 42.2978 340.928 29.4856 346.878 16.6734C347.04 16.3231 347.394 16.1062 347.765 16.1229C357.473 16.5733 367.165 17.0404 376.857 17.4742C377.55 17.5076 377.97 18.2583 377.647 18.8922C369.487 35.2244 361.327 51.5565 353.168 67.8887C352.958 68.3058 353.087 68.8063 353.426 69.0899C363.359 77.0474 371.39 83.7204 376.986 88.4082C380.808 91.6112 383.969 94.2304 386.758 96.5159C393.741 102.221 397.208 105.091 400.998 107.993C404.449 110.613 409.19 114.099 415.124 117.97C415.915 118.487 415.576 119.755 414.625 119.755C398.482 119.721 382.324 119.688 366.165 119.671C365.827 119.671 365.504 119.454 365.343 119.171C361.053 110.963 356.538 105.074 353.006 101.054C347.475 94.7809 339.106 87.1403 339.122 87.1236C339.122 87.1236 339.154 87.1403 339.17 87.1737C337.267 85.7056 336.316 84.9883 334.413 83.5202C333.719 82.9864 332.752 83.6203 332.929 84.5045C334.413 91.6446 335.397 97.2499 335.896 101.27C336.429 105.558 336.993 111.347 337.59 118.62C337.638 119.187 337.203 119.688 336.638 119.671C327.511 119.521 318.383 119.371 309.256 119.237Z" fill="#51B795"/>
<path d="M103.34 138.656C102.421 140.124 101.357 142.076 100.502 144.495C99.728 146.697 99.3087 148.699 99.083 150.334C89.7781 150.334 80.4733 150.334 71.1685 150.334C70.7653 155.505 70.2654 159.726 69.6526 163.012C69.0398 166.299 68.3464 169.519 67.5401 172.672C66.7338 175.825 65.7339 179.144 64.5567 182.631C63.3634 186.118 62.4926 188.487 61.9443 189.738C56.2195 189.738 53.3651 189.738 47.6564 189.738C49.4787 184.049 50.3979 181.213 52.2202 175.541C55.4293 164.38 56.9129 155.989 56.7194 150.367C51.3009 150.367 48.5917 150.367 43.1733 150.367C43.4314 147.347 43.5604 145.846 43.8184 142.843C43.8345 141.192 43.8345 140.357 43.8507 138.689C44.7215 138.689 45.1569 138.689 46.0277 138.689C65.105 138.656 84.2307 138.656 103.34 138.656Z" fill="#586DB2" stroke="#CDCCCC" stroke-width="3" stroke-miterlimit="10"/>
<path d="M94.7128 169.802C97.293 162.962 98.3251 154.638 98.2122 150.751C98.2122 150.751 98.1476 147.531 99.4055 142.026C99.6796 140.825 100.421 139.84 101.615 139.106C102.808 138.356 104.469 137.955 106.598 137.888C108.726 137.822 112.79 137.772 118.789 137.772C124.772 137.772 129.223 137.822 132.142 137.888C135.061 137.955 137.125 138.623 138.334 139.84C139.544 141.058 140.011 143.727 139.705 147.848C139.399 151.969 138.85 156.239 138.06 160.71C137.27 165.164 136.464 169.001 135.625 172.188C134.786 175.357 133.996 178.16 133.238 180.529C132.48 182.898 131.658 184.616 130.755 185.667C129.868 186.718 128.707 187.669 127.288 188.487C125.869 189.304 124.385 189.721 122.853 189.721C121.321 189.721 116.967 189.721 109.855 189.721C102.744 189.721 97.9703 189.721 95.5191 189.721C93.0679 189.721 91.5037 189.287 90.7941 188.42C90.5522 188.12 90.1007 187.569 89.8749 186.518C89.3267 184.049 94.7128 169.802 94.7128 169.802ZM106.162 175.357C106.098 175.524 106.05 175.925 105.969 176.525C105.904 177.142 105.953 177.71 106.146 178.227C106.34 178.744 106.84 179.078 107.63 179.211C108.42 179.345 110.081 179.378 112.597 179.278C115.112 179.194 116.644 179.128 117.209 179.078C117.773 179.028 118.322 178.761 118.87 178.277C119.418 177.776 119.87 177.226 120.241 176.575C120.611 175.941 120.982 174.907 121.386 173.456C121.773 172.004 122.192 170.319 122.66 168.401C123.127 166.482 123.611 164.147 124.127 161.428C124.643 158.708 125.078 156.106 125.417 153.603C125.756 151.118 125.756 149.483 125.401 148.749C125.046 147.998 124.353 147.614 123.337 147.564C122.321 147.514 120.773 147.498 118.676 147.498C116.58 147.498 115.177 147.531 114.419 147.564C113.661 147.598 113.081 147.865 112.613 148.332C112.161 148.799 111.855 149.383 111.71 150.1C111.549 150.817 111.242 152.586 110.823 155.388C110.371 158.191 109.968 160.477 109.613 162.228C109.259 163.98 108.888 165.548 108.533 166.949C108.178 168.334 107.388 171.137 106.162 175.357Z" fill="#586DB2" stroke="#CDCCCC" stroke-width="3" stroke-miterlimit="10"/>
<path d="M392.467 27.884C397.208 33.089 399.595 35.7081 404.336 40.9131C423.075 40.9131 441.83 40.9131 460.568 40.9131C467.535 44.9502 489.644 68.5226 489.644 68.5226C489.644 68.5226 499.884 89.3257 501.561 96.3491C478.63 96.299 455.714 96.249 432.799 96.1989C435.186 102.722 436.363 105.992 438.733 112.498C429.993 105.341 420.156 97.9839 409.4 90.6603C396.821 82.1189 383.404 74.0779 369.842 67.1713C377.373 54.0756 384.92 40.9798 392.467 27.884ZM505.915 39.445C512.43 44.4331 522.299 53.2748 530.508 67.138C537.152 78.3653 540.377 88.9086 542.022 96.3324C530.766 96.3324 525.121 96.3324 513.865 96.3324C512.156 88.7919 508.592 77.1642 500.61 64.9192C492.192 51.9903 482.468 43.9159 476.146 39.445C486.08 39.445 495.998 39.445 505.915 39.445ZM553.504 96.3491C552.052 90.7771 550.036 84.6713 547.23 78.2485C540.796 63.6013 531.475 50.4054 520.09 39.445C526.234 39.9455 532.378 40.4126 538.522 40.9131C547.166 47.2524 552.665 53.9254 555.971 58.5965C560.309 64.719 562.405 70.3243 565.034 75.1122C569.614 83.4868 572.145 90.5602 572.613 96.3657C564.969 96.349 561.147 96.3491 553.504 96.3491ZM585.837 96.4158C584.466 91.0273 582.531 85.0717 579.725 78.8324C573.129 64.1685 563.276 51.2395 551.278 40.9131C556.003 40.9131 560.728 40.9131 565.453 40.9131C571.371 45.8511 579.58 53.8253 586.869 65.5865C594.271 77.4978 597.851 88.6918 599.705 96.3657C594.158 96.3824 591.4 96.3991 585.837 96.4158ZM608.849 94.7976C605.253 86.1727 600.399 76.2299 593.803 65.7033C587.594 55.7939 581.208 47.5694 575.371 40.8964C578.209 40.8964 581.031 40.8964 583.885 40.8964C589.126 45.9512 595.158 52.6743 600.899 61.3158C609.236 73.9111 613.848 85.9225 616.493 94.8643C613.445 94.8476 611.913 94.8476 608.849 94.7976Z" fill="#586DB2" stroke="#BBBBBA" stroke-width="4" stroke-miterlimit="10"/>
<path d="M352.506 280.958L346.266 281.258C345.927 277.521 346.749 274.001 348.717 270.731C350.7 267.462 352.426 264.425 353.877 261.639C355.345 258.837 358.296 255.233 362.73 250.779L369.471 250.629C364.424 255.217 360.876 259.571 358.828 263.658C356.78 267.762 355.441 270.514 354.796 271.932C354.167 273.35 353.41 276.353 352.506 280.958ZM370.923 281.258H360.489C363.892 270.765 366.262 264.726 367.552 263.157C368.842 261.573 369.713 260.438 370.165 259.738C370.616 259.037 371.648 257.552 373.277 255.283C374.922 253.014 376.647 251.179 378.502 249.778H388.42C383.646 256.218 380.389 260.605 378.647 262.941C376.905 265.259 375.293 267.812 373.793 270.615C372.293 273.4 371.342 276.954 370.923 281.258ZM395.676 281.258H380.84C380.502 277.521 381.792 273.234 384.727 268.396C387.662 263.575 389.564 260.438 390.451 258.953C391.338 257.469 393.822 254.299 397.918 249.394L412.754 249.244C404.788 260.088 400.063 267.061 398.644 270.164C397.224 273.25 396.225 276.954 395.676 281.258ZM443.974 248.794C442.329 250.445 438.766 255.2 433.283 263.041C427.784 270.881 425.349 277.004 425.977 281.408H404.804C405.691 275.152 407.706 269.463 410.851 264.292C413.98 259.12 417.543 254.015 421.494 248.977L443.974 248.794ZM601.092 233.179C612.622 241.137 624.169 249.094 635.699 257.052C620.314 270.481 604.946 283.894 589.562 297.323C590.175 291.668 590.787 286.012 591.4 280.357L435.685 281.108C436.427 275.97 437.653 272.066 439.314 269.413C440.991 266.778 442.942 263.608 445.2 259.921C447.441 256.251 450.441 252.414 454.198 248.427C502.674 248.327 551.165 248.21 599.641 248.093C600.141 243.105 600.624 238.15 601.092 233.179Z" fill="#586DB2" stroke="#CDCCCC" stroke-width="3" stroke-miterlimit="10"/>
<path d="M717.523 183.015C717.588 182.915 717.652 182.798 717.717 182.698C709.702 182.764 701.687 182.831 693.673 182.915L674.079 218.265C671.709 207.104 669.37 195.944 667 184.8C667 184.099 667 183.415 667 182.714C658.824 182.714 650.664 182.714 642.488 182.714C640.569 188.687 638.634 194.642 636.715 200.615C641.069 200.615 645.423 200.615 649.793 200.615C652.519 216.863 655.695 232.161 659.163 246.475C655.55 253.565 651.938 260.638 648.326 267.728C644.31 275.085 640.279 282.459 636.263 289.799C633.538 289.899 630.813 290 628.087 290.1C622.798 296.072 617.525 302.028 612.219 308C621.975 307.8 631.732 307.6 641.488 307.399C644.133 307.399 646.761 307.399 649.422 307.399C654.937 297.156 660.469 286.897 666 276.654L672.515 308C674.563 307.933 676.627 307.867 678.675 307.8L678.562 307.983C698.736 307.8 718.91 307.633 739.1 307.466L743.051 291.651H723.167C727.57 272.416 730.44 258.92 731.763 251.163C733.085 243.422 734.262 235.965 735.246 228.825C736.246 221.685 737.23 211.408 738.246 197.996H757.92C758.065 197.629 758.194 197.028 758.323 196.194C758.452 195.36 758.661 190.972 759 183.015H717.523ZM718.297 216.613C717.314 225.889 716.007 235.248 714.314 244.673C712.637 254.116 709.492 269.747 704.88 291.568C699.478 291.568 694.044 291.568 688.641 291.568C685.674 276.053 682.707 260.538 679.723 245.024C689.286 229.309 698.849 213.61 708.412 197.895H720.329C719.958 201.115 719.265 207.354 718.297 216.613Z" fill="#51B68D"/>
<path d="M459.681 276.503H466.325L467.551 274.318L469.083 270.431L469.389 269.764C475.179 269.764 478.388 269.697 479 269.547C479.613 269.397 480.258 269.08 480.952 268.613C481.629 268.129 482.097 267.662 482.339 267.195C482.581 266.711 482.758 266.26 482.903 265.81C483.032 265.36 483.29 264.409 483.661 262.957C484.032 261.506 484.258 260.238 484.322 259.137C484.387 258.036 484.129 257.185 483.564 256.551C482.984 255.917 481.048 255.617 477.775 255.617H465.293C465.358 255.567 465.325 256.084 465.196 257.152C465.051 258.219 464.858 259.537 464.632 261.089C464.39 262.64 464.019 264.325 463.503 266.144C463.003 267.962 462.455 269.63 461.858 271.132C461.278 272.616 460.471 274.435 459.456 276.537L459.681 276.503Z" fill="#CDCCCC"/>
<path d="M471.873 259.504C475.066 259.354 476.856 259.387 477.259 259.571C477.63 259.771 477.823 260.088 477.823 260.538C477.823 260.989 477.759 261.706 477.662 262.674C477.565 263.641 477.372 264.325 477.098 264.726C476.823 265.126 476.388 265.36 475.807 265.443C475.227 265.51 473.55 265.56 470.744 265.56C470.744 265.46 470.857 264.809 471.099 263.608C471.34 262.407 471.566 261.039 471.76 259.487H471.873V259.504Z" fill="#586DB2"/>
<path d="M508.237 266.327C508.608 264.726 508.866 263.224 508.995 261.839C509.124 260.438 509.189 259.27 509.157 258.319C509.124 257.369 508.963 256.434 508.689 255.55C504.738 255.4 501.658 255.317 499.432 255.283C497.207 255.25 495.723 255.25 494.982 255.283C494.24 255.317 493.304 255.717 492.208 256.484C491.111 257.252 490.434 258.336 490.16 259.704C489.886 261.072 489.628 262.44 489.402 263.791C489.16 265.126 488.821 266.461 488.386 267.762C487.951 269.063 487.483 270.364 486.999 271.699C486.515 273.033 485.806 274.635 484.854 276.537H491.498L492.934 273.684L493.95 270.765L500.287 270.831L499.787 272.716L498.255 276.537H504.593C505.609 274.235 506.383 272.366 506.899 270.915" fill="#CDCCCC"/>
<path d="M494.885 266.177C495.498 263.541 495.933 261.856 496.207 261.156C496.481 260.455 496.82 259.904 497.223 259.504C497.626 259.104 499.465 259.02 502.738 259.287C502.529 260.922 502.383 262.09 502.271 262.774C502.174 263.441 501.884 264.676 501.4 266.494L494.756 266.427L494.885 266.177Z" fill="#586DB2"/>
<path d="M510.85 276.737H518.623C519.913 274.101 520.703 272.533 520.977 272.049C521.251 271.565 521.557 270.881 521.896 269.997C523.331 271.198 524.283 272.183 524.767 273C525.25 273.801 525.621 275.069 525.896 276.82H533.668C533.185 273.417 532.233 270.531 530.798 268.129C533.249 267.278 534.765 266.511 535.362 265.843C535.942 265.176 536.313 264.625 536.49 264.192C536.668 263.775 536.894 262.924 537.216 261.689C537.522 260.438 537.748 259.32 537.877 258.319C538.006 257.319 537.716 256.518 537.006 255.884C536.281 255.25 533.378 254.9 528.25 254.8H518.332C518.268 256.201 518.058 257.786 517.72 259.554C517.381 261.322 516.913 263.041 516.333 264.692C515.752 266.344 515.091 267.995 514.349 269.68C513.607 271.349 512.366 273.717 510.672 276.77H510.85V276.737Z" fill="#CDCCCC"/>
<path d="M523.235 264.892C523.299 264.592 523.541 263.875 523.96 262.757C524.364 261.639 524.702 260.338 524.976 258.887C527.573 258.887 529.185 258.97 529.83 259.154C530.475 259.337 530.653 259.921 530.33 260.922C530.024 261.923 529.83 262.557 529.717 262.824C529.621 263.091 529.379 263.441 529.056 263.841C528.718 264.242 528.185 264.509 527.476 264.659C526.75 264.809 525.331 264.892 523.235 264.892Z" fill="#586DB2"/>
<path d="M555.1 269.163C555.471 267.829 555.842 266.427 556.229 265.009C556.6 263.591 556.858 261.739 556.987 259.504H564.453C564.582 258.403 564.76 256.835 564.953 254.783H543.779H542.554V256.268L542.247 259.487H549.617C549.682 261.94 548.875 265.593 547.166 270.431L544.715 276.503H552.084" fill="#CDCCCC"/>
<path d="M199.275 139.674C206.451 140.041 211.918 140.791 214.482 143.01C217.046 145.229 218.207 148.315 217.982 152.269C217.756 156.206 217.288 160.51 216.562 165.214C208.225 165.214 204.049 165.214 195.711 165.214C197.372 158.742 195.905 155.505 191.277 155.505C186.648 155.505 183.004 155.505 179.617 155.505C176.231 155.505 174.344 156.49 173.925 158.458C173.505 160.427 172.973 162.979 172.344 166.132C171.715 169.268 171.635 171.504 172.119 172.805C172.586 174.09 173.618 175.157 175.134 175.941C176.666 176.742 180.117 176.959 185.503 176.592C190.873 176.242 195.518 176.792 199.404 178.26C203.307 179.728 206.129 182.831 207.887 187.569C209.644 192.307 209.435 198.896 207.274 207.338C205.113 215.779 202.855 221.651 200.517 224.954C198.179 228.258 192.97 231.027 184.874 233.229C174.521 233.229 169.345 233.229 158.992 233.229C142.253 233.946 136.141 227.09 140.64 212.676C141.946 209.24 142.608 207.521 143.914 204.085C151.929 204.085 155.944 204.085 163.943 204.085C163.169 206.754 162.765 208.072 162.007 210.758C162.136 213.193 162.443 214.728 162.959 215.362C163.475 216.013 168.426 216.196 177.86 215.963C182.955 215.262 186.132 212.076 187.374 206.404C188.616 200.715 188.051 197.145 185.665 195.61C183.294 194.109 179.359 193.525 173.876 193.875C168.393 194.225 163.298 194.075 158.605 193.458C153.912 192.824 150.735 191.323 149.058 188.954C147.381 186.585 147.22 182.181 148.558 175.758C149.897 169.335 150.961 164.013 151.751 159.793C152.525 155.572 153.219 152.285 153.815 149.917C154.396 147.548 155.686 145.462 157.653 143.611C159.637 141.776 162.233 140.591 165.442 140.091C168.651 139.59 174.505 139.34 182.988 139.34C191.454 139.306 197.018 139.557 199.275 139.674Z" fill="#51B68D"/>
<path d="M217.514 232.779C221.255 222.552 224.19 213.977 226.319 207.054C228.447 200.131 230.173 193.591 231.511 187.436C232.85 181.28 234.043 175.007 235.108 168.601C236.172 162.212 237.527 152.969 239.188 140.908C247.751 140.908 252.024 140.908 260.587 140.908C275.407 140.941 282.825 140.941 297.629 140.958C297.258 149.266 296.597 155.705 295.597 160.343C280.535 160.21 272.988 160.143 257.91 159.993C257.184 165.915 256.475 170.903 255.749 174.907C270.779 175.057 278.277 175.124 293.291 175.257C292.307 180.729 290.759 187.085 288.679 194.325C273.617 194.325 266.07 194.325 251.008 194.325C248.089 204.669 246.09 211.158 245.009 213.744C260.41 213.877 268.102 213.961 283.486 214.094C281.212 220.434 278.745 226.79 276.052 233.162C256.459 233.162 236.849 233.162 217.272 233.162C217.385 233.029 217.433 232.945 217.514 232.779Z" fill="#51B68D"/>
<path d="M312.497 233.179C309.127 233.179 306.45 232.128 304.466 230.059C302.483 227.991 301.531 225.805 301.596 223.52C301.661 221.234 302.322 217.447 303.58 212.159C304.821 206.871 306.095 200.581 307.385 193.258C308.675 185.934 309.643 179.762 310.288 174.74C310.933 169.719 311.433 165.598 311.788 162.395C312.143 159.192 312.691 156.106 313.433 153.153C314.174 150.2 315.755 147.498 318.174 145.062C320.577 142.626 323.495 141.325 326.93 141.192C330.365 141.058 335.848 141.058 343.427 141.192C350.991 141.325 359.957 141.542 370.342 141.792C370.213 147.331 370.165 150.117 370.036 155.655C369.874 156.94 369.794 157.557 369.649 158.842C369.487 159.776 369.407 160.243 369.262 161.177C363.376 161.01 360.457 160.927 354.571 160.777C343.315 160.777 337.267 161.044 336.429 161.561C335.59 162.078 334.864 162.979 334.252 164.23C333.639 165.498 333.042 167.717 332.478 170.92C331.913 174.106 331.236 178.21 330.478 183.215C329.704 188.22 329.011 192.44 328.366 195.843C327.72 199.247 327.317 201.766 327.156 203.351C326.995 204.952 326.946 206.103 327.027 206.804C327.092 207.488 327.608 208.556 328.559 209.99C329.51 211.425 332.752 212.142 338.251 212.142C347.411 212.142 351.99 212.142 361.166 212.142C360.57 214.928 360.279 216.33 359.667 219.132C358.022 224.754 357.183 227.574 355.538 233.196C341.492 233.196 327.462 233.196 313.417 233.196C313.03 233.179 312.852 233.179 312.497 233.179Z" fill="#51B68D"/>
<path d="M462.342 231.594C466.406 224.738 471.211 215.512 475.42 204.168C480.936 189.337 483.016 177.443 484.161 170.686C485.645 161.978 486.918 150.867 486.951 137.939C493.466 137.939 499.981 137.939 506.48 137.939C511.64 145.596 516.816 153.27 521.977 160.927C528.75 152.285 532.136 147.965 538.893 139.307C547.601 139.307 556.326 139.307 565.034 139.307C561.825 156.256 558.293 173.105 553.778 189.487C549.924 203.484 545.392 217.748 540.167 231.577C532.088 231.577 528.04 231.577 519.945 231.577C525.396 216.597 528.814 205.87 530.201 199.43C531.604 192.991 533.039 184.016 534.523 172.521C526.524 180.979 522.525 185.2 514.526 193.658C510.334 185.884 508.237 182.014 504.061 174.24C501.803 186.151 499.707 195.193 497.739 201.382C495.788 207.555 493.498 214.077 490.853 220.917C488.209 227.757 486.693 231.311 486.273 231.594C478.307 231.594 470.325 231.594 462.342 231.594Z" fill="#51B68D"/>
<path d="M551.778 232.412C550.859 232.412 550.278 231.444 550.746 230.677C552.278 228.074 554.471 224.204 556.729 219.466C568.307 195.126 580.209 146.263 574.871 140.124C574.871 140.124 574.855 140.124 574.855 140.141C588.239 140.141 601.624 140.141 614.993 140.141C625.152 140.141 631.167 141.509 633.022 144.245C634.812 146.88 635.151 149.7 635.57 155.355C635.57 155.355 637.053 174.473 628.99 191.006C627.845 193.358 626.588 195.426 624.733 197.245C622.685 199.247 620.621 200.615 618.524 201.382C613.3 203.251 609.8 202.633 599.383 202.266C596.899 202.183 593.206 202.099 588.643 202.183C588.175 202.2 587.739 202.466 587.546 202.917C586.836 204.635 585.95 206.687 584.869 208.989C584.498 209.773 583.821 211.208 582.95 212.91C580.063 218.598 577.322 222.919 576.403 224.337C574.645 227.073 572.887 229.609 571.13 231.961C570.904 232.261 570.549 232.445 570.162 232.445C562.824 232.412 559.164 232.412 551.778 232.412ZM595.351 156.823C594.9 163.363 594.238 169.302 593.335 174.623C592.706 178.377 592.319 180.996 592.174 182.481C592.11 183.165 592.674 183.749 593.368 183.749C601.544 183.715 606.494 183.482 608.204 183.031C609.994 182.548 611.348 181.447 612.268 179.745C613.187 178.027 613.832 175.057 614.203 170.803C614.574 166.566 614.767 163.413 614.799 161.344C614.832 159.275 614.203 157.824 612.896 156.973C611.59 156.122 605.801 155.939 595.496 156.473C595.464 156.606 595.416 156.69 595.351 156.823Z" fill="#51B68D"/>
<path d="M467.373 171.304C467.099 170.987 466.841 170.753 466.68 170.603L426.445 138.372C424.445 136.771 421.494 137.054 419.866 139.04L419.559 139.407L379.018 170.97C378.776 171.153 377.325 172.254 377.276 174.04C377.26 174.657 377.421 175.174 377.567 175.524C382.904 190.422 388.242 205.302 393.58 220.2C394.435 222.602 397.095 223.87 399.53 223.019L400.579 222.652C403.014 221.818 404.304 219.199 403.449 216.797L389.065 176.242L423.607 149.349L457.633 176.609L444.361 212.292L412.286 212.493C411.883 212.509 410.287 212.593 408.98 213.861C407.207 215.596 407.594 217.981 407.642 218.198C407.658 220.734 409.771 222.786 412.351 222.769C423.542 222.802 434.734 222.853 445.926 222.886C446.522 223.019 448.715 223.403 450.973 222.185C453.86 220.617 454.489 217.664 454.569 217.23C462.326 195.009 467.954 178.877 468.68 176.859C468.744 176.692 468.905 176.225 468.954 175.591C469.131 173.389 467.664 171.637 467.373 171.304Z" fill="#586DB2" stroke="#CDCCCC" stroke-width="3" stroke-miterlimit="10"/>
<path d="M187.745 146.146C188.342 146.28 190.535 146.663 192.792 145.446C195.679 143.878 196.308 140.925 196.389 140.491" stroke="#51B68D" stroke-width="3" stroke-miterlimit="10"/>
<path d="M185.81 145.996C188.696 144.428 189.325 141.475 189.406 141.042" stroke="#51B68D" stroke-width="3" stroke-miterlimit="10"/>
</g>
<defs>
<filter id="filter0_d_109_231" x="0" y="0" width="779" height="332" filterUnits="userSpaceOnUse" color-interpolation-filters="sRGB">
<feFlood flood-opacity="0" result="BackgroundImageFix"/>
<feColorMatrix in="SourceAlpha" type="matrix" values="0 0 0 0 0 0 0 0 0 0 0 0 0 0 0 0 0 0 127 0" result="hardAlpha"/>
<feOffset dy="4"/>
<feGaussianBlur stdDeviation="10"/>
<feComposite in2="hardAlpha" operator="out"/>
<feColorMatrix type="matrix" values="0 0 0 0 0 0 0 0 0 0 0 0 0 0 0 0 0 0 0.5 0"/>
<feBlend mode="normal" in2="BackgroundImageFix" result="effect1_dropShadow_109_231"/>
<feBlend mode="normal" in="SourceGraphic" in2="effect1_dropShadow_109_231" result="shape"/>
</filter>
</defs>
</svg>
