<svg width="1440" height="1466" viewBox="0 0 1440 1466" fill="none" xmlns="http://www.w3.org/2000/svg">
<g opacity="0.5" filter="url(#filter0_f_106_178)">
<path fill-rule="evenodd" clip-rule="evenodd" d="M1004.27 438.907C1073.3 457.652 1080.51 534.05 1127.33 578.532C1156.59 606.323 1200.35 620.441 1226.57 650.084C1257.24 684.751 1292.42 721.248 1291.06 763.621C1289.67 807.403 1252.01 843.781 1219.26 878.987C1184.12 916.762 1153.5 974.571 1094.42 974.998C1030.61 975.459 1006.7 902.351 948.849 880.942C904.266 864.444 848.914 885.959 805.241 867.988C750.746 845.564 671.378 817.123 675.42 768.43C679.82 715.423 797.616 714.086 822.118 664.666C849.1 610.245 772.297 542.144 812.022 492.909C849.485 446.478 938.624 421.081 1004.27 438.907Z" fill="#51B795"/>
<path fill-rule="evenodd" clip-rule="evenodd" d="M531.193 265.583C599.876 264.575 663.418 286.716 723.93 307.015C782.043 326.509 845.928 346.221 878.409 382.056C910.568 417.536 877.156 464.204 900.837 502.193C926.349 543.119 1023.17 565.326 1020 609.195C1016.91 651.987 919.559 667.594 886.204 705.033C852.163 743.243 870.931 796.242 824.295 828.866C777.817 861.38 703.559 873.787 634.695 880.98C566.886 888.062 493.072 888.944 431.467 869.897C371.188 851.261 344.165 807.822 298.453 777.025C260.438 751.413 214.704 731.345 183.077 702.549C150.089 672.514 124.233 640.006 109.302 604.806C93.108 566.629 83.763 527.262 92.1198 488.116C101.169 445.726 114.194 400.393 159.759 368.449C205.339 336.493 279.785 329.966 342.45 312.612C405.054 295.274 462.719 266.588 531.193 265.583Z" fill="#51B795"/>
<path fill-rule="evenodd" clip-rule="evenodd" d="M531.193 265.583C599.876 264.575 663.418 286.716 723.93 307.015C782.043 326.509 845.928 346.221 878.409 382.056C910.568 417.536 877.156 464.204 900.837 502.193C926.349 543.119 1023.17 565.326 1020 609.195C1016.91 651.987 919.559 667.594 886.204 705.033C852.163 743.243 870.931 796.242 824.295 828.866C777.817 861.38 703.559 873.787 634.695 880.98C566.886 888.062 493.072 888.944 431.467 869.897C371.188 851.261 344.165 807.822 298.453 777.025C260.438 751.413 214.704 731.345 183.077 702.549C150.089 672.514 124.233 640.006 109.302 604.806C93.108 566.629 83.763 527.262 92.1198 488.116C101.169 445.726 114.194 400.393 159.759 368.449C205.339 336.493 279.785 329.966 342.45 312.612C405.054 295.274 462.719 266.588 531.193 265.583Z" fill="black" fill-opacity="0.2"/>
<path fill-rule="evenodd" clip-rule="evenodd" d="M627.706 739.536C684.585 729.44 713.728 640.288 767.359 658.427C820.412 676.37 774.41 748.868 787.388 793.542C794.073 816.552 808.19 837.447 825.019 856.904C848.688 884.269 888.989 901.021 906.446 931.194C927.865 968.216 948.297 1010.05 936.576 1049.72C924.947 1089.08 887.644 1124.06 843.527 1144.15C799.715 1164.1 742.998 1172.2 695.01 1159.73C645.789 1146.93 632.335 1088.05 582.689 1076.33C538.687 1065.95 495.183 1109.94 450.382 1102C407.436 1094.4 365.386 1068.12 350.431 1035.21C334.975 1001.2 368.25 965.324 371.883 929.278C374.863 899.716 364.844 870.666 369.977 841.292C375.669 808.714 377.293 772.788 403.655 747.447C430.03 722.094 471.964 704.981 513.298 703.522C554.724 702.059 587.234 746.719 627.706 739.536Z" fill="#586DB2"/>
<path fill-rule="evenodd" clip-rule="evenodd" d="M1004.71 316.536C1061.59 306.44 1090.73 217.288 1144.36 235.427C1197.41 253.37 1151.41 325.868 1164.39 370.542C1171.07 393.552 1185.19 414.447 1202.02 433.904C1225.69 461.269 1265.99 478.021 1283.45 508.194C1304.87 545.216 1325.3 587.047 1313.58 626.72C1301.95 666.08 1264.64 701.056 1220.53 721.146C1176.71 741.098 1120 749.201 1072.01 736.726C1022.79 723.929 1009.33 665.048 959.689 653.334C915.687 642.952 872.183 686.937 827.382 679.005C784.436 671.401 742.386 645.121 727.431 612.213C711.975 578.204 745.25 542.324 748.883 506.278C751.863 476.716 741.844 447.666 746.977 418.292C752.669 385.714 754.293 349.788 780.655 324.447C807.03 299.094 848.964 281.981 890.298 280.522C931.724 279.059 964.234 323.719 1004.71 316.536Z" fill="#586DB2"/>
</g>
<defs>
<filter id="filter0_f_106_178" x="-211" y="-67" width="1828" height="1532.67" filterUnits="userSpaceOnUse" color-interpolation-filters="sRGB">
<feFlood flood-opacity="0" result="BackgroundImageFix"/>
<feBlend mode="normal" in="SourceGraphic" in2="BackgroundImageFix" result="shape"/>
<feGaussianBlur stdDeviation="150" result="effect1_foregroundBlur_106_178"/>
</filter>
</defs>
</svg>
