<svg width="228" height="44" viewBox="0 0 228 44" fill="none" xmlns="http://www.w3.org/2000/svg">
<path d="M27.5848 1.7702C30.8804 1.93313 33.391 2.26639 34.5685 3.25138C35.746 4.23636 36.2793 5.60643 36.1756 7.36163C36.0719 9.10941 35.8571 11.0201 35.5239 13.1086C31.695 13.1086 29.7769 13.1086 25.9481 13.1086C26.7109 10.2351 26.0369 8.79837 23.9114 8.79837C21.786 8.79837 20.1122 8.79837 18.557 8.79837C17.0018 8.79837 16.1353 9.23533 15.9427 10.1092C15.7502 10.9831 15.5058 12.1162 15.217 13.5159C14.9281 14.9082 14.8911 15.9006 15.1133 16.4783C15.3281 17.0485 15.802 17.5225 16.4982 17.8706C17.2017 18.226 18.7866 18.3223 21.2602 18.1594C23.7263 18.0039 25.8592 18.2483 27.644 18.9C29.4362 19.5517 30.7323 20.9292 31.5395 23.0325C32.3468 25.1357 32.2505 28.0611 31.2581 31.8084C30.2657 35.5558 29.2289 38.1627 28.155 39.629C27.0812 41.0954 24.6891 42.3248 20.9713 43.3023C16.2167 43.3023 13.8395 43.3023 9.0849 43.3023C1.3976 43.6208 -1.40923 40.577 0.657012 34.1783C1.25689 32.6527 1.56053 31.8899 2.1604 30.3643C5.84112 30.3643 7.68519 30.3643 11.3585 30.3643C11.003 31.5492 10.8179 32.1343 10.4698 33.3266C10.529 34.4079 10.6697 35.0892 10.9067 35.3706C11.1437 35.6595 13.4173 35.7409 17.7498 35.6372C20.09 35.3262 21.549 33.9117 22.1192 31.3937C22.6895 28.8683 22.4303 27.2834 21.3342 26.6021C20.2456 25.9356 18.4385 25.6764 15.9205 25.8319C13.4025 25.9874 11.0623 25.9207 8.90717 25.6467C6.75206 25.3653 5.29309 24.6988 4.52288 23.6472C3.75267 22.5955 3.67861 20.6404 4.2933 17.7891C4.90799 14.9378 5.39678 12.5754 5.75967 10.7017C6.11515 8.828 6.4336 7.36903 6.70762 6.3174C6.97423 5.26576 7.5667 4.34004 8.47022 3.51799C9.38114 2.70334 10.5735 2.17752 12.0472 1.95535C13.521 1.73317 16.2094 1.62207 20.1048 1.62207C23.9929 1.60726 26.548 1.71836 27.5848 1.7702Z" fill="white"/>
<path d="M35.9608 43.1024C37.679 38.5626 39.0268 34.756 40.0044 31.6825C40.982 28.6091 41.7744 25.706 42.3891 22.9732C43.0038 20.2405 43.5518 17.4558 44.0406 14.612C44.5294 11.7755 45.1515 7.67268 45.9143 2.31824C49.8468 2.31824 51.8094 2.31824 55.7419 2.31824C62.5479 2.33305 65.9546 2.33305 72.7532 2.34045C72.5829 6.02858 72.2792 8.88724 71.82 10.9461C64.903 10.8868 61.437 10.8572 54.5125 10.7906C54.1793 13.4196 53.8534 15.634 53.5201 17.4114C60.4224 17.4781 63.8661 17.5077 70.761 17.5669C70.3092 19.9961 69.5983 22.8177 68.6429 26.0319C61.7259 26.0319 58.2599 26.0319 51.3428 26.0319C50.0023 30.6235 49.084 33.5044 48.5878 34.6523C55.6604 34.7115 59.193 34.7486 66.2582 34.8078C65.214 37.622 64.0809 40.4437 62.8441 43.2727C53.846 43.2727 44.8405 43.2727 35.8497 43.2727C35.9016 43.2135 35.9238 43.1764 35.9608 43.1024Z" fill="white"/>
<path d="M79.5814 43.2801C78.0336 43.2801 76.8042 42.8136 75.8933 41.8952C74.9823 40.9769 74.5454 40.0068 74.575 38.9922C74.6046 37.9776 74.9083 36.2964 75.4859 33.9487C76.0562 31.6011 76.6413 28.8091 77.2337 25.5579C77.8262 22.3067 78.2706 19.5665 78.5668 17.3374C78.863 15.1082 79.0926 13.279 79.2555 11.857C79.4185 10.4351 79.6703 9.065 80.0109 7.75416C80.3516 6.44332 81.0774 5.24357 82.1883 4.16231C83.2917 3.08105 84.6322 2.5034 86.2097 2.44415C87.7871 2.38491 90.3051 2.38491 93.7859 2.44415C97.2592 2.5034 101.377 2.59968 106.146 2.71077C106.087 5.16952 106.065 6.4063 106.006 8.86505C105.931 9.4353 105.894 9.70932 105.828 10.2796C105.754 10.6943 105.717 10.9017 105.65 11.3164C102.947 11.2423 101.606 11.2053 98.9033 11.1387C93.734 11.1387 90.9568 11.2571 90.5717 11.4867C90.1866 11.7163 89.8533 12.1162 89.5719 12.6717C89.2905 13.2345 89.0165 14.2195 88.7573 15.6414C88.4981 17.0559 88.187 18.8778 87.8389 21.0996C87.4835 23.3213 87.165 25.195 86.8688 26.7058C86.5725 28.2166 86.3874 29.3349 86.3133 30.0384C86.2393 30.7494 86.2171 31.2604 86.2541 31.5715C86.2837 31.8751 86.5207 32.3491 86.9576 32.986C87.3946 33.6229 88.8832 33.9413 91.4086 33.9413C95.6151 33.9413 97.7184 33.9413 101.932 33.9413C101.658 35.1781 101.525 35.8002 101.244 37.0444C100.488 39.5402 100.103 40.7918 99.3477 43.2876C92.8972 43.2876 86.4541 43.2876 80.0035 43.2876C79.8258 43.2801 79.7443 43.2801 79.5814 43.2801Z" fill="white"/>
<path d="M148.397 42.5766C150.263 39.5328 152.47 35.4373 154.403 30.4013C156.936 23.8175 157.891 18.5371 158.417 15.5377C159.098 11.6719 159.683 6.73955 159.698 1C162.69 1 165.682 1 168.667 1C171.036 4.3993 173.414 7.806 175.784 11.2053C178.894 7.36905 180.449 5.45094 183.552 1.60729C187.552 1.60729 191.558 1.60729 195.557 1.60729C194.084 9.13165 192.462 16.6116 190.388 23.8841C188.618 30.0977 186.537 36.4297 184.137 42.5692C180.427 42.5692 178.568 42.5692 174.851 42.5692C177.354 35.9187 178.924 31.1567 179.561 28.2981C180.205 25.4394 180.864 21.455 181.545 16.3524C177.872 20.1072 176.035 21.9808 172.362 25.7356C170.437 22.2845 169.474 20.5663 167.556 17.1152C166.519 22.403 165.556 26.417 164.653 29.1645C163.757 31.9047 162.705 34.8004 161.49 37.8368C160.276 40.8732 159.58 42.4507 159.387 42.5766C155.729 42.5766 152.063 42.5766 148.397 42.5766Z" fill="white"/>
<path d="M189.47 42.9395C189.048 42.9395 188.781 42.51 188.996 42.1693C189.699 41.014 190.707 39.2958 191.743 37.1925C197.061 26.3874 202.526 4.69558 200.075 1.97021C200.075 1.97021 200.068 1.97022 200.068 1.97763C206.214 1.97763 212.361 1.97763 218.501 1.97763C223.166 1.97763 225.929 2.5849 226.781 3.79947C227.603 4.96959 227.758 6.22119 227.951 8.73178C227.951 8.73178 228.632 17.2189 224.929 24.5581C224.403 25.6024 223.826 26.5207 222.974 27.3279C222.033 28.2166 221.085 28.8239 220.123 29.1646C217.723 29.994 216.116 29.72 211.332 29.5571C210.191 29.5201 208.495 29.483 206.4 29.5201C206.185 29.5275 205.985 29.646 205.896 29.8459C205.57 30.6087 205.163 31.5196 204.667 32.5417C204.496 32.8897 204.185 33.5266 203.785 34.282C202.46 36.8074 201.201 38.7256 200.779 39.3551C199.971 40.5696 199.164 41.6953 198.357 42.7396C198.253 42.8729 198.09 42.9543 197.912 42.9543C194.543 42.9395 192.862 42.9395 189.47 42.9395ZM209.48 9.3835C209.273 12.2866 208.969 14.9231 208.555 17.2856C208.266 18.9519 208.088 20.1146 208.021 20.7737C207.992 21.0774 208.251 21.3366 208.569 21.3366C212.324 21.3218 214.598 21.2181 215.383 21.0181C216.205 20.8034 216.827 20.3146 217.249 19.5592C217.671 18.7964 217.968 17.4781 218.138 15.5896C218.308 13.7085 218.397 12.3088 218.412 11.3905C218.427 10.4722 218.138 9.82785 217.538 9.45015C216.938 9.07245 214.279 8.991 209.547 9.22798C209.532 9.28723 209.51 9.32425 209.48 9.3835Z" fill="white"/>
<path d="M150.234 17.5412C150.103 17.3937 149.979 17.285 149.902 17.2151L130.595 2.21483C129.635 1.46948 128.219 1.60146 127.437 2.52539L127.29 2.6962L107.836 17.3859C107.72 17.4713 107.024 17.9837 107.001 18.8145C106.993 19.1018 107.07 19.3424 107.14 19.5055C109.701 26.4388 112.263 33.3644 114.824 40.2978C115.234 41.4158 116.511 42.0059 117.679 41.6099L118.182 41.4391C119.351 41.0509 119.97 39.8319 119.56 38.7139L112.657 19.8393L129.233 7.3236L145.561 20.0102L139.192 36.6176L123.8 36.7108C123.607 36.7185 122.841 36.7573 122.214 37.3474C121.363 38.1549 121.549 39.2652 121.572 39.3661C121.58 40.5462 122.593 41.5012 123.831 41.4934C129.202 41.509 134.572 41.5323 139.943 41.5478C140.229 41.6099 141.281 41.7885 142.365 41.2217C143.75 40.4919 144.052 39.1176 144.09 38.9158C147.812 28.574 150.513 21.0661 150.861 20.1266C150.892 20.049 150.97 19.8316 150.993 19.5366C151.078 18.5117 150.374 17.6965 150.234 17.5412Z" fill="white" stroke="white" stroke-width="2" stroke-miterlimit="10"/>
</svg>
