<svg xmlns="http://www.w3.org/2000/svg" width="179" height="163" viewBox="0 0 179 163" fill="none">
  <path d="M174.921 64.6273C174.391 64.0335 173.893 63.596 173.582 63.3148L95.915 2.93874C92.0549 -0.0613062 86.3583 0.469934 83.2142 4.18875L82.6228 4.87626L4.36416 64.0023C3.89722 64.3461 1.09555 66.4086 1.00216 69.7524C0.971029 70.9087 1.28239 71.8774 1.56256 72.5336C11.8663 100.44 22.17 128.316 32.4738 156.223C34.1236 160.723 39.2599 163.098 43.9604 161.504L45.9838 160.816C50.6843 159.254 53.1746 154.347 51.5248 149.847L23.7576 73.8774L90.4362 23.5016L156.119 74.5649L130.499 141.41L68.5836 141.785C67.8054 141.816 64.7235 141.972 62.202 144.347C58.7778 147.597 59.525 152.066 59.6184 152.473C59.6495 157.223 63.7274 161.066 68.708 161.035C90.3116 161.098 111.915 161.191 133.519 161.254C134.671 161.504 138.904 162.223 143.262 159.941C148.834 157.004 150.048 151.472 150.204 150.66C165.177 109.034 176.041 78.8151 177.442 75.0337C177.567 74.7212 177.878 73.8462 177.971 72.6587C178.314 68.5336 175.481 65.2523 174.921 64.6273Z" stroke="white" stroke-width="2" stroke-miterlimit="10"/>
</svg>